<?xml version="1.0" standalone="no"?>
<!DOCTYPE svg PUBLIC "-//W3C//DTD SVG 20010904//EN"
 "http://www.w3.org/TR/2001/REC-SVG-20010904/DTD/svg10.dtd">
<svg version="1.0" xmlns="http://www.w3.org/2000/svg"
 width="200.000000pt" height="200.000000pt" viewBox="0 0 200.000000 200.000000"
 preserveAspectRatio="xMidYMid meet">

<g transform="translate(0.000000,200.000000) scale(0.100000,-0.100000)"
fill="#2B518D" opacity='0.05' stroke="none">
<path d="M490 1790 c-11 -11 -20 -28 -20 -38 0 -10 113 -180 250 -376 138
-197 250 -366 250 -376 0 -9 -110 -176 -245 -371 -166 -240 -245 -362 -245
-380 0 -55 16 -59 257 -59 205 0 222 1 246 20 28 22 530 743 541 776 7 24 29
-9 -293 457 -156 226 -242 342 -262 352 -22 12 -73 15 -244 15 -202 0 -216 -1
-235 -20z"/>
</g>
</svg>
