<svg xmlns="http://www.w3.org/2000/svg" width="50" height="50" viewBox="0 0 50 50">
    <g transform="translate(-545.721)">
        <path d="M25,0A25,25,0,1,1,0,25,25,25,0,0,1,25,0Z" transform="translate(545.721)" class="circle" fill="#E98A15" opacity="0.35"></path>
        <path d="M15.072,16.6h-.087c-10-.575-11.418-9.011-11.616-11.586a1.526,1.526,0,0,1,1.4-1.644h2.8a1.017,1.017,0,0,1,.947.641l.772,1.9a1.017,1.017,0,0,1-.224,1.1L7.989,8.112a4.767,4.767,0,0,0,3.856,3.867l1.1-1.094a1.017,1.017,0,0,1,1.1-.209l1.918.768a1.017,1.017,0,0,1,.626.946v2.686A1.526,1.526,0,0,1,15.072,16.6ZM4.9,4.392a.506.506,0,0,0-.509.509v.04c.234,3.012,1.735,10.136,10.655,10.646a.509.509,0,0,0,.54-.478V12.391l-1.918-.768-1.46,1.45-.244-.031C7.532,12.485,6.931,8.06,6.931,8.014L6.9,7.77,8.343,6.31,7.584,4.392Z" transform="translate(560.739 15.349)" fill="#ffffff" stroke="#ffffff" strokeWidth="0.1"></path>
    </g>
</svg>
